<svg xmlns="http://www.w3.org/2000/svg" xmlns:xlink="http://www.w3.org/1999/xlink" id="Layer_2" viewBox="0 0 2005 2005"><defs><style>.cls-1{stroke:#26a8d1;}.cls-1,.cls-2,.cls-3{stroke-width:5px;}.cls-1,.cls-2,.cls-3,.cls-4,.cls-5{stroke-miterlimit:10;}.cls-1,.cls-3,.cls-6,.cls-4,.cls-5{fill:none;}.cls-7,.cls-8{fill:#fff;}.cls-9{fill:#061f33;}.cls-10{fill:#9b87ff;}.cls-2,.cls-11{fill:#6c63ff;}.cls-2,.cls-5{stroke:#fff;}.cls-12{fill:#3f3d56;}.cls-13{fill:#231f20;opacity:.1;}.cls-14{clip-path:url(#clippath-2);}.cls-15{fill:#3dc8e8;}.cls-16{clip-path:url(#clippath-1);}.cls-3{stroke:#3dc8e8;}.cls-17{fill:#26a8d1;}.cls-18{fill:#e5785c;}.cls-19{fill:#e4e4ef;isolation:isolate;}.cls-20{clip-path:url(#clippath);}.cls-8{opacity:.2;}.cls-21{fill:#8070f2;}.cls-22{fill:#f8a17a;}.cls-4{stroke:#0b2d4e;}.cls-4,.cls-5{stroke-width:4px;}.cls-23{fill:#f5f5fe;}.cls-24{fill:#0b2d4e;}</style><clipPath id="clippath"><path class="cls-11" d="M1200.32,1368.53c10.88-44.44,16.52-89.9-8.13-120.17-11.13-13.67-30.97-23.19-47.2-29.96-31.66-13.2-64.03-30.95-97.92-36.7-35.73-6.07-75.47-9.81-111.08-1.13-22.62,5.51-43.78,15.71-64.01,26.71-17.55,9.55-39.08,17.77-47.6,35.53-20.65,43.05-38.97,87.96-54.17,133.06-12.72,37.74-26.68,77.29-6.64,115.54,6.49,12.39,15.92,23,23.35,34.84,8.27,13.19,11.36,25.58,12.44,40.79,2.48,34.71,1.51,69.53,1.41,104.29-.03,10.02,.11,20.43,4.65,29.44,8.96,17.76,33.32,18.01,50.87,17.98,57.84-.1,115.68-.19,173.51-.29,24.06-.04,42.45,2.8,65.04,7.28,19.01,3.77,35.33-5.49,44.46-22.55,8.63-16.16,9.29-35.02,10.22-53.18,3.6-70.64,13.99-140.95,30.99-209.75,4.81-19.48,13.25-44.96,19.81-71.74Z"></path></clipPath><clipPath id="clippath-1"><path class="cls-15" d="M1694.67,986.01c-11-.06-21.68-1.48-29.22-12.27-14.79-21.19-37.38-40.21-62.7-18.66-14.61,12.43-3.62,37.99-16.19,50.29-11.12,10.87-25.25,9.08-30.94,27.12-8.36,26.55,18,49.81,26.46,72.77,7.1,19.27-8.87,26.61-16.05,41.62-5.53,11.57-2.69,23.97,3.34,35.04,10.63,19.51,34.2,35.22,28.74,60.49-4.56,21.09-8.79,39.88,9.81,55.86,12.75,10.96,36.42,20.94,34.62,41.22-.64,7.18-5.6,13.29-6.97,20.36-2.15,11.2,5.1,22.09,13.52,29.77,19.16,17.48,35.99,33.97,50.34,55.97,6.13,9.4,30.69,30.62,20.87,43.47,17.84-23.36,36.69-46.01,52.9-70.56,13.33-20.2,33.42-49.74,19.75-74.61-4.25-7.74-12.17-13.5-14.33-22.06-3.91-15.46,11.27-29.79,16.92-42.94,8.86-20.65,2.36-44.63-13.26-60.12-7.39-7.33-15.4-15.4-16.49-25.75-1.18-11.3,5.9-21.84,9.12-32.27,2.96-9.61,4.81-19.83,5.89-29.82,.76-7.05,1.06-14.26-.6-21.16-3.15-13.11-14.96-20.4-23.7-29.71-20.81-22.15-9.87-48.2-18.96-73.94-8.16-23.11-25.89-20-42.86-20.1Z"></path></clipPath><clipPath id="clippath-2"><path class="cls-17" d="M1829.8,1147.44c7.99,1.48,15.93,1.93,22.9-4.86,13.66-13.32,32.68-23.99,48.07-4.86,8.87,11.04-2.63,28.06,4.79,38.72,6.56,9.43,17.06,10.08,18.69,23.96,2.39,20.42-19.95,33.64-29.27,49.13-7.82,12.99,2.75,20.53,5.88,32.41,2.41,9.16-1.37,17.76-7.27,24.95-10.41,12.68-29.68,20.81-29.22,39.9,.39,15.93,.86,30.14-14.85,39.16-10.77,6.18-29.32,10.15-30.81,25.11-.53,5.29,2.23,10.42,2.23,15.74,.01,8.42-6.75,15.32-13.93,19.73-16.32,10.03-30.81,19.66-44.27,33.63-5.75,5.97-26.5,17.97-21.16,28.64-9.71-19.41-20.25-38.45-28.6-58.51-6.87-16.5-17.36-40.7-4-56.85,4.16-5.02,10.69-8.11,13.45-14.02,4.98-10.67-4.05-23.17-6.33-33.49-3.57-16.2,4.47-32.7,17.94-41.78,6.37-4.3,13.3-9.04,15.53-16.4,2.42-8.04-1.26-16.66-2.15-24.67-.82-7.38-.74-15.05-.15-22.44,.42-5.22,1.21-10.49,3.36-15.27,4.1-9.08,13.68-12.73,21.31-18.27,18.16-13.19,13.83-33.6,23.99-51.01,9.12-15.63,21.55-10.92,33.87-8.65Z"></path></clipPath></defs><g id="Layer_1-2"><g><path class="cls-23" d="M714.45,1728.65h576.1c246.01-110.18,417.41-357.15,417.41-644.15,0-389.62-315.85-705.46-705.46-705.46S297.04,694.88,297.04,1084.5c0,287.01,171.39,533.97,417.41,644.15Z"></path><rect class="cls-6" x="0" y="0" width="2005" height="2005" transform="translate(2005 0) rotate(90)"></rect><path class="cls-24" d="M1269.38,1433.27c-46.33,16.39-102.2,14.72-144.36-12.32-41.44-26.58-79.19-45.77-130.17-44.84-45.56,.83-83.23,25.46-127.35,30.7-34.99,4.16-70.55-11.1-95.91-35.57-24.76-23.88-41.2-60.3-30.43-92.97,5.64-17.11,17.96-31.22,24.99-47.8,16.21-38.25-26.48-61.32-15.86-101.58,9.03-34.24,46.6-58.66,46.04-94.07-.41-25.92-20.47-46-27.54-69.98-7.13-24.19-5.55-51.29,7.02-73.39,9.24-16.24,24.08-29.53,41.28-36.86,15.45-6.58,32.7-6.71,44.65-20.2,21.29-24.06,29.1-50.13,58.3-67.72,24.73-14.89,57.38-15.84,85.75-13.24,63.04,5.78,124.22,39.05,159.72,92.04,12.58,18.78,21.66,38,21.98,60.32,.35,24.4,.34,48.94,15.29,69.69,12.55,17.42,32.7,27.61,52.68,35.47,19.98,7.86,40.92,14.22,58.45,26.6,17.54,12.38,31.47,32.58,29.42,53.95-1.71,17.89-14.09,33.43-15.74,51.32-3,32.53,28.35,56.17,47.67,82.51,27.05,36.89,31.54,89.05,11.18,130.01-23.44,47.16-66.04,57.8-110.67,75.55-2.11,.84-4.24,1.64-6.38,2.4Z"></path><path class="cls-11" d="M932.54,824.99c15.32-8.95,33.13-13.05,50.82-13.76,17.76-.68,35.55,1.6,52.79,5.89,34.57,8.7,66.06,29.28,88.02,57.58,10.85,14.23,19.25,30.42,24.23,47.69,5.01,17.32,6.03,35.44,5.82,53.16-.18,17.76-1.44,35.42-.86,52.9,.37,8.67,1.44,17.34,4.08,25.43,2.6,8.06,7.1,15.5,13.76,20.36,6.57,4.99,15.02,7.1,23.55,8.12,8.56,1.01,17.5,1.07,26.42,2.26,17.66,2.38,35.61,6.58,50.99,16.7,7.56,5.05,14.36,12.09,17.67,20.97,3.43,8.88,2.74,18.59,.44,27.44-2.67,8.95-7.74,16.46-11.28,24.29-3.54,7.84-5.81,16.27-6.58,24.86-1.63,17.28,2.8,34.61,8.95,51,6.04,16.53,13.29,32.82,17.52,50.18,2.07,8.66,3.33,17.58,3.19,26.53-.11,8.94-1.74,17.84-4.65,26.24-5.81,16.84-16.76,31.77-30.92,42.35,13.91-10.92,24.41-26.01,29.75-42.75,5.59-16.75,4.85-34.93,.23-51.78-4.42-17-11.79-33.09-18.11-49.66-6.41-16.46-11.3-34.28-9.83-52.45,.69-9.03,2.96-17.94,6.59-26.26,3.69-8.28,8.61-15.68,10.95-23.78,2.05-8.18,2.6-16.88-.44-24.62-2.92-7.76-8.97-14.06-16.03-18.74-14.34-9.4-31.85-13.52-49.02-15.73-8.62-1.12-17.41-1.13-26.42-2.14-8.89-1.03-18.32-3.21-25.98-8.98-7.7-5.66-12.69-14.18-15.44-22.88-2.81-8.76-3.86-17.82-4.21-26.78-.52-17.89,.84-35.55,1.08-53.14,.28-17.55-.66-35.16-5.43-51.92-4.81-16.72-12.74-32.51-23.12-46.54-21.03-27.87-51.65-48.48-85.55-57.54-16.93-4.63-34.52-7.31-52.13-7.04-17.55,.3-35.33,3.94-50.85,12.53Z"></path><path class="cls-9" d="M1155.55,1217.12c1.64,39.98-7.62,70.01-44.19,89.78-29.12,15.75-63.99,20.92-96.13,21.71-53.9,1.33-113.95-12.57-154.27-50.43-7.32-6.87-14.34-15.29-14.87-25.32-.48-9.11,4.53-17.7,4.97-26.81,.74-15.37-11.21-28.1-16.55-42.53-7.06-19.06-2.26-40.34,4.08-59.65,6.34-19.31,14.27-38.81,13.32-59.11-1.23-26.33-17.06-49.33-29.73-72.45-12.67-23.12-22.64-51.25-11.82-75.28,7.13-15.84,24.15-28.02,41.53-29.95,18.37-2.04,34.87,18.95,46.64,30.51,15.83,15.56,33.47,29.28,52.45,40.79,26.24,15.93,55.06,27.67,79.74,45.92,14.94,11.04,30.96,26.2,38.09,43.79,8.04,19.82-6.04,39.01,10.98,57.24,10.98,11.76,27.83,15.76,41.11,24.86,28.41,19.47,33.34,55.35,34.64,86.92Z"></path><path class="cls-11" d="M857.89,1440.83c37.84-58.32,61.39-129.89,28.51-195.74-3.33-6.67-7.34-13.96-14.42-16.31-15.22-5.06-35.87,.38-49.11,8.15-45.92,26.94-74.02,77.64-99.81,122.74-26.8,46.86-50.07,95.64-77.01,142.43-10.91,18.95-21.92,38.15-27.78,59.22-5.12,18.45-5.69,39.59,1.31,57.64,30.23,78.07,113.36-17.56,138.67-46.45,36.11-41.23,69.83-85.72,99.64-131.7Z"></path><g><path class="cls-11" d="M1200.32,1368.53c10.88-44.44,16.52-89.9-8.13-120.17-11.13-13.67-30.97-23.19-47.2-29.96-31.66-13.2-64.03-30.95-97.92-36.7-35.73-6.07-75.47-9.81-111.08-1.13-22.62,5.51-43.78,15.71-64.01,26.71-17.55,9.55-39.08,17.77-47.6,35.53-20.65,43.05-38.97,87.96-54.17,133.06-12.72,37.74-26.68,77.29-6.64,115.54,6.49,12.39,15.92,23,23.35,34.84,8.27,13.19,11.36,25.58,12.44,40.79,2.48,34.71,1.51,69.53,1.41,104.29-.03,10.02,.11,20.43,4.65,29.44,8.96,17.76,33.32,18.01,50.87,17.98,57.84-.1,115.68-.19,173.51-.29,24.06-.04,42.45,2.8,65.04,7.28,19.01,3.77,35.33-5.49,44.46-22.55,8.63-16.16,9.29-35.02,10.22-53.18,3.6-70.64,13.99-140.95,30.99-209.75,4.81-19.48,13.25-44.96,19.81-71.74Z"></path><g class="cls-20"><path class="cls-11" d="M1066.36,1239.27c13.61-22.1,16.71-49.7-1.13-70.99-8.16-9.73-22.58-10.82-34.91-11.05-24.28-.44-48.61,2.05-72.25,7.39-22.53,5.09-45.51,13.7-55.27,35.65-7.25,16.31-4.72,35.17,4.83,50.09,8.68,13.55,23.07,23.58,39.13,27.27,25.93,5.96,56.29,5.15,81.03-4.87,15.5-6.28,29.41-18.64,38.56-33.49Z"></path><path class="cls-11" d="M1220.81,1572.26c-.18-34.07-.36-68.15-.54-102.22-.06-11.86,7.92-84.07-11.21-83.25-2.06,.09-3.95,1.12-5.63,2.27-9.52,6.57-14.41,17.56-18.85,28-13.94,32.73-25.65,85.13-54.66,108.04-29.5,23.29-74.85,33.11-111.51,38.7-42.81,6.53-86.32,7.01-129.57,9.55-27.98,1.64-58.85,5.53-77.23,25.95-13.13,14.58-19.81,36.44-26.82,54.25-6.13,15.57-11,34.06,1.43,48.16,5.3,6.02,12.67,9.97,20.07,13.33,27,12.28,56.5,18.47,85.94,23.22,82.38,13.3,166.35,16.07,249.78,12.23,17.84-.82,37.18-2.53,50.34-14.18,9.79-8.67,14.4-21.42,17.69-33.85,11.18-42.32,11.02-86.55,10.79-130.22Z"></path></g></g><path class="cls-12" d="M826.34,983.58c-31.56,32.47-2.93,111.81,47.4,100.33,54.08-12.34,45.95-96.62-2.96-110.46-19.07-5.4-34.28-.33-44.44,10.12Z"></path><path class="cls-4" d="M1257.15,1427.94c31.63,4.03,64.95,1.26,93.21-13.53,35.97-18.82,53.97-53.34,54.71-93.05,.54-28.76-5.03-58.75-22.39-81.69-18.88-24.94-50.52-40.28-62.27-69.27-7.6-18.78-5.78-44.34,9.26-58.87,9.57-9.25,17.06-19.68,15.83-33.54-1.81-20.4-16.73-39.99-33.4-51.01-24.44-16.15-54.84-22.06-83.44-25.7-19.37-2.46-38.67-7.9-44.66-28.76-3.23-11.25-2.59-23.13-3.2-34.69-1.29-24.66-3.1-49.33-6.78-73.77-4.25-28.17-22.54-55.42-42.94-74.83-2.93-2.79-5.97-5.46-9.11-8-52.6-42.61-149.96-57.7-207.97-18.21-19.78,13.46-33.64,34.07-38.05,57.63-2.95,15.74-7.21,19.13-22.59,23.9-27.94,8.67-59.65,14.83-81.84,35.32-17.36,16.03-25.34,40.31-23.03,63.6,2.95,29.73,23.74,43.96,38.62,67.53,15.2,24.06,3.25,54.33-14.4,74.18-13.59,15.29-32.88,26.46-40.56,45.42-7.07,17.44-2.39,37.61,6.15,54.39,3.46,6.8,7.53,13.29,10.58,20.27,9.3,21.26,8.34,46.75-2.53,67.25"></path><path class="cls-11" d="M1346.82,1473.95c9.67,17.45,19.29,34.93,28.73,52.52,19.16,35.7,54.74,115.02-2.22,134.62-28.69,9.87-45.11,.22-64.08-20.69-71.76-79.09-132.95-167.74-181.44-262.87-18.05-35.41-65.97-127.67-7.76-148.75,18.38-6.66,39.56-5.11,56.78,4.15,7.87,4.23,14.85,9.94,21.52,15.89,42.01,37.46,71.92,85.8,98.53,134.82,16.45,30.3,33.28,60.26,49.94,90.3Z"></path><path class="cls-22" d="M1017.04,1253.28c17.33-5.56,31.61-16.33,36.95-33.46,4.85-15.54-2.8-33.03-4.16-48.71-1.31-15.03-1.48-30.15-.49-45.2,.91-13.91,2.24-28.41,.1-42.28-1.22-7.93-5.57-6.57-13.59-9.72-8.01-3.15-17.01-3.18-25.73-3.16-17.84,.04-64.35-1.25-75.37,14.4-5.06,7.19-5.46,16.23-5.7,24.79-.29,10.33-2.12,23.71-3.81,38.12-.75,6.42-.29,12.81-1.27,19.18-1.1,7.14-3.81,13.98-6.18,20.81-8.97,25.85-.57,50.43,27.38,62.27,20.06,8.49,48.69,10.38,71.86,2.95Z"></path><path class="cls-18" d="M1049.36,1083.63c-1.22-7.93-5.57-6.57-13.59-9.72-8.01-3.15-17.01-3.18-25.73-3.16-17.84,.04-64.35-1.25-75.37,14.4-5.06,7.19-5.46,16.23-5.7,24.79-.29,10.33-2.12,23.71-3.81,38.12-.75,6.42-.29,12.81-1.27,19.18-.84,5.43-2.61,10.69-4.45,15.91,17.29,6.42,36.83,7.85,54.87,3.41,32.5-8,57.11-28.23,74.67-54.53,.09-2.05,.15-4.09,.28-6.14,.91-13.91,2.24-28.41,.1-42.28Z"></path><path class="cls-22" d="M1075.26,981.78c-.14-23.82-3.43-46.42-9.56-65.19-26.45-80.97-127.45-100.97-188.27-42.85-67.82,64.81-41.87,219.78,29.57,274.21,19.1,14.55,45.06,19.67,68.26,13.45,70.19-18.82,100.44-105.2,100-179.62Z"></path><path class="cls-22" d="M1061.99,983.78c31.07-16.99,40.64,26.03,35.29,47.44-2.21,8.84-5.7,17.47-11.19,24.74-7.39,9.8-28.54,26.05-40.72,15.33-5.53-4.86-6.1-13.13-6.27-20.49-.46-19.74,1.82-55.51,22.88-67.03Z"></path><path class="cls-11" d="M960.78,1125.5c-7.62,0-15.29-.56-22.97-1.69l1.37-9.32c27.89,4.11,55.7,.23,80.43-11.23,6.72-3.11,12.41-6.38,17.4-10,9.08-6.58,16.88-15.17,22.54-24.85l8.13,4.76c-6.32,10.8-15.01,20.38-25.15,27.72-5.49,3.98-11.7,7.55-18.97,10.92-19.58,9.07-40.95,13.7-62.8,13.7Z"></path><path class="cls-11" d="M910.57,1107.06c11.36-9.75,36.63-8.92,44.96,1.21,6.17,7.5,4.29,17.03-2.51,23.37-8.04,7.5-17.99,7.07-28.02,4.81-12.56-2.83-28.13-17.63-14.43-29.38Z"></path><path class="cls-18" d="M1075.42,919.93c-27.84-85.24-134.18-106.3-198.21-45.11-14.15,13.52-24.36,30.8-31.15,50.2,1.43,2.21,3.02,4.42,4.94,6.64,8.78,10.18,20.91,16.82,33.11,22.47,35.65,16.48,74.07,26.15,112.67,33.38,2.84,.53,5.7,1.06,8.56,1.62,10.63,2.1,21.17,4.72,30.45,10.18,26.23,15.46,14.95,49.47,34.17,64.38,1.74,1.35,3.5,2.22,5.25,2.84,7.1-25.39,10.43-52.34,10.28-77.96-.15-25.08-3.61-48.87-10.06-68.63Z"></path><path class="cls-24" d="M1008.09,979.39c10.16,3.76,20.15,8.03,28.44,14.91,23.43,19.45,6.87,51.22,23.46,69,14.7,15.75,37.03-5.06,42.88-19.61,10.78-26.8,10.14-56.63,9.35-85.51-.44-16.1-.92-32.44-5.64-47.84-5.15-16.8-15.18-31.79-27.13-44.68-34.49-37.21-86.53-56.56-136.92-53.38-39.41,2.48-108.53,35.6-77.64,85.76,7.05,11.45,17.96,19.94,29.11,27.46,32.56,21.95,68.95,37.63,105.9,50.92,2.72,.98,5.46,1.95,8.19,2.97Z"></path><path class="cls-12" d="M1075.04,971.54c-43.86,11.25-60.81,93.88-11.88,110.33,52.58,17.68,89.59-58.48,55.08-95.79-13.46-14.55-29.08-18.16-43.2-14.54Z"></path><path class="cls-11" d="M1089.42,982.14c-30.28,4.87-48.93,69.19-17.73,86.9,33.53,19.02,65-38.26,45.27-71.25-7.69-12.87-17.8-17.21-27.55-15.64Z"></path><path class="cls-12" d="M1095.53,977.32l-11.7-1.35c7.94-68.58,4.55-156.2-56.61-184.18-28.97-13.25-111.92-27.96-148.43,21.31-4.39,4.93-7.33,9.07-7.33,9.07,22.64-69.86,129.4-55.39,160.66-41.09,67.6,30.93,71.8,123.79,63.41,196.25Z"></path><rect class="cls-19" x="635.48" y="1624.72" width="240.52" height="47.09"></rect><path class="cls-19" d="M676.75,1629.28l-60.7-309.03c-1.6-8.16-8.76-14.05-17.08-14.05H195.45c-5.84,0-10.85,2.89-13.99,7.18l-.05-.05-18.63,22.03,16.53-3.63,59.76,304.26c1.6,8.16,8.76,14.05,17.08,14.05h403.53c10.96,0,19.19-10.01,17.08-20.76Z"></path><path class="cls-7" d="M237.7,1671.8h403.53c10.96,0,19.19-10.01,17.08-20.76l-60.7-309.03c-1.6-8.16-8.76-14.05-17.08-14.05H177c-10.96,0-19.19,10.01-17.08,20.76l60.7,309.03c1.6,8.16,8.76,14.05,17.08,14.05Z"></path><path class="cls-11" d="M364.63,1492.23c3.72,20.85,23.64,37.74,44.48,37.74s34.49-16.9,30.46-37.74c-4.02-20.85-23.94-37.74-44.48-37.74s-34.19,16.9-30.46,37.74Z"></path><path class="cls-7" d="M1522.89,1487.31c4.45-9.19,3.65-18.86,.85-27.62-2.7-8.96-7.51-16.68-12.72-25.12-5.26-8.32-10.64-17.39-13.93-28.31-3.34-11.04-2.38-23.42,.68-33.89,6.63-21.36,20.2-37.09,29.56-53.19,4.69-8.15,8.52-16.42,10.04-25.58,1.7-9.07,1.12-18.73-3.34-27.84,7.72,6.76,11.47,17.71,11.97,28.32,.48,10.72-2.22,21.59-6.33,31.15-8.12,19.39-20.28,35.14-25.02,52.16-2.69,8.43-3.35,16.59-1.44,24.76,1.59,8.38,5.97,16.83,9.91,26,4.18,8.95,8.18,19.3,9.07,29.94,.9,10.48-1.49,22.33-9.3,29.2Z"></path><path class="cls-10" d="M1467.08,1499.05h119.92v146.77c0,13.8-11.2,25-25,25h-69.92c-13.8,0-25-11.2-25-25v-146.77h0Z"></path><path class="cls-10" d="M1595.37,1537.9c-28.76,0-52.07,23.65-52.07,52.83s23.31,52.83,52.07,52.83,52.07-23.65,52.07-52.83-23.31-52.83-52.07-52.83Zm0,86.82c-18.5,0-33.5-15.22-33.5-33.99s15-33.99,33.5-33.99,33.5,15.22,33.5,33.99-15,33.99-33.5,33.99Z"></path><path class="cls-8" d="M1485.01,1605.62h0c-3.57,0-6.48-2.92-6.48-6.48v-83.6c0-3.57,2.92-6.48,6.48-6.48h0c3.57,0,6.48,2.92,6.48,6.48v83.6c0,3.57-2.92,6.48-6.48,6.48Z"></path><path class="cls-21" d="M1559.3,1499.05v141.4c0,16.77-13.6,30.37-30.37,30.37h27.69c16.77,0,30.37-13.6,30.37-30.37v-141.4h-27.69Z"></path><rect class="cls-12" x="1223.54" y="603.15" width="491.31" height="298.34" rx="41" ry="41" transform="translate(2938.4 1504.64) rotate(180)"></rect><polygon class="cls-12" points="1288.21 980.02 1288.21 842.92 1395.58 901.49 1288.21 980.02"></polygon><rect class="cls-7" x="1298.38" y="739.72" width="243.22" height="26.03" rx="9" ry="9"></rect><rect class="cls-7" x="1560.3" y="739.72" width="79.72" height="26.03" rx="9" ry="9"></rect><rect class="cls-7" x="1396.8" y="680.61" width="243.22" height="26.03" rx="9" ry="9" transform="translate(3036.82 1387.26) rotate(180)"></rect><rect class="cls-7" x="1298.38" y="680.61" width="79.72" height="26.03" rx="9" ry="9" transform="translate(2676.47 1387.26) rotate(180)"></rect><rect class="cls-7" x="1298.38" y="793.76" width="170.82" height="26.03" rx="9" ry="9"></rect><g><path class="cls-15" d="M1694.67,986.01c-11-.06-21.68-1.48-29.22-12.27-14.79-21.19-37.38-40.21-62.7-18.66-14.61,12.43-3.62,37.99-16.19,50.29-11.12,10.87-25.25,9.08-30.94,27.12-8.36,26.55,18,49.81,26.46,72.77,7.1,19.27-8.87,26.61-16.05,41.62-5.53,11.57-2.69,23.97,3.34,35.04,10.63,19.51,34.2,35.22,28.74,60.49-4.56,21.09-8.79,39.88,9.81,55.86,12.75,10.96,36.42,20.94,34.62,41.22-.64,7.18-5.6,13.29-6.97,20.36-2.15,11.2,5.1,22.09,13.52,29.77,19.16,17.48,35.99,33.97,50.34,55.97,6.13,9.4,30.69,30.62,20.87,43.47,17.84-23.36,36.69-46.01,52.9-70.56,13.33-20.2,33.42-49.74,19.75-74.61-4.25-7.74-12.17-13.5-14.33-22.06-3.91-15.46,11.27-29.79,16.92-42.94,8.86-20.65,2.36-44.63-13.26-60.12-7.39-7.33-15.4-15.4-16.49-25.75-1.18-11.3,5.9-21.84,9.12-32.27,2.96-9.61,4.81-19.83,5.89-29.82,.76-7.05,1.06-14.26-.6-21.16-3.15-13.11-14.96-20.4-23.7-29.71-20.81-22.15-9.87-48.2-18.96-73.94-8.16-23.11-25.89-20-42.86-20.1Z"></path><g class="cls-16"><path class="cls-1" d="M1722.52,1515.39c7.73-88.56,.63-177.83-15.73-265.05-15.61-83.21-36.09-166.7-67.15-245.57-10.26-26.06-21.78-51.64-34.88-76.4"></path><path class="cls-1" d="M1534.84,1047.12c43.59,15.39,85.17,36.47,123.35,62.54,9.69,6.61,15.08,8.64,23.15,17.14"></path><path class="cls-1" d="M1702.01,1221.69c-41.84-27.04-89.29-45.35-138.44-53.44"></path><path class="cls-1" d="M1718.56,1335.94c-38.94-33.74-86.4-57.57-136.73-68.63"></path><path class="cls-1" d="M1679.18,1123.89c3.04-46.86,14.7-93.14,34.23-135.85"></path><path class="cls-1" d="M1701.48,1217.83c19.78-42.33,48.36-80.52,83.4-111.44"></path><path class="cls-1" d="M1721.15,1339.19c2.73-13.08,7.53-25.72,14.15-37.32,7.71-13.5,17.79-25.47,28.06-37.13,7.39-8.4,14.92-16.69,22.56-24.87"></path></g></g><g><path class="cls-17" d="M1829.8,1147.44c7.99,1.48,15.93,1.93,22.9-4.86,13.66-13.32,32.68-23.99,48.07-4.86,8.87,11.04-2.63,28.06,4.79,38.72,6.56,9.43,17.06,10.08,18.69,23.96,2.39,20.42-19.95,33.64-29.27,49.13-7.82,12.99,2.75,20.53,5.88,32.41,2.41,9.16-1.37,17.76-7.27,24.95-10.41,12.68-29.68,20.81-29.22,39.9,.39,15.93,.86,30.14-14.85,39.16-10.77,6.18-29.32,10.15-30.81,25.11-.53,5.29,2.23,10.42,2.23,15.74,.01,8.42-6.75,15.32-13.93,19.73-16.32,10.03-30.81,19.66-44.27,33.63-5.75,5.97-26.5,17.97-21.16,28.64-9.71-19.41-20.25-38.45-28.6-58.51-6.87-16.5-17.36-40.7-4-56.85,4.16-5.02,10.69-8.11,13.45-14.02,4.98-10.67-4.05-23.17-6.33-33.49-3.57-16.2,4.47-32.7,17.94-41.78,6.37-4.3,13.3-9.04,15.53-16.4,2.42-8.04-1.26-16.66-2.15-24.67-.82-7.38-.74-15.05-.15-22.44,.42-5.22,1.21-10.49,3.36-15.27,4.1-9.08,13.68-12.73,21.31-18.27,18.16-13.19,13.83-33.6,23.99-51.01,9.12-15.63,21.55-10.92,33.87-8.65Z"></path><g class="cls-14"><path class="cls-3" d="M1736.33,1527.58c6.65-65.31,24.16-129.08,48.1-190.09,22.84-58.19,49.25-115.92,82.7-168.84,11.05-17.48,22.95-34.44,35.87-50.59"></path><path class="cls-3" d="M1937.28,1213.89c-33.75,5.13-66.83,14.66-98.13,28.29-7.94,3.46-12.13,4.18-19.17,9.23"></path><path class="cls-3" d="M1791.86,1317.37c34.09-13.82,71.05-20.54,107.82-19.6"></path><path class="cls-3" d="M1764.04,1397.95c32.92-19.09,70.64-29.8,108.68-30.86"></path><path class="cls-3" d="M1821.96,1249.59c4.28-34.41,2.23-69.6-6.02-103.28"></path><path class="cls-3" d="M1792.78,1314.64c-8.49-33.44-23.94-65.1-45.07-92.38"></path><path class="cls-3" d="M1761.71,1399.95c-.17-9.86-1.9-19.7-5.1-29.03-3.72-10.86-9.38-20.93-15.21-30.82-4.2-7.12-8.51-14.17-12.92-21.16"></path></g></g><polygon class="cls-12" points="1658.64 1504.96 1821.92 1504.96 1793.28 1668.36 1687.29 1668.36 1658.64 1504.96"></polygon><rect class="cls-12" x="1638.65" y="1459.09" width="203.26" height="45.87" transform="translate(3480.56 2964.05) rotate(180)"></rect><polygon class="cls-13" points="1818.12 1526.63 1662.44 1526.63 1658.64 1504.96 1821.92 1504.96 1818.12 1526.63"></polygon><path class="cls-11" d="M1066.67,1598.6c4.9-.84,9.8-1.64,14.72-2.42,23.9-3.75,47.7-8.2,71.36-13.35,46.87-10.19,94.01-18.94,141.73-23.46,5.06-.48,10.12-.91,15.18-1.29,21.39-1.62,43.81-2.14,63.39,8.09,19.58,10.23,35.15,34.43,30.37,57.75-3.36,16.39-15.89,28.72-29.82,34.94-13.92,6.22-29.26,7.3-44.29,8.31-48.72,3.28-97.43,6.56-146.15,9.84-24.12,1.61-48.24,3.28-72.35,4.95-23.03,1.6-46.41,4.85-69.51,4.83-9.77-.01-20.68-1.84-28.88-8.36-11.41-9.06-18.28-28.35-19.38-43.43-.57-7.83,.95-17.33,6.95-22.18,3.21-2.59,7.29-3.39,11.22-4.11,18.51-3.41,36.94-6.96,55.46-10.12Z"></path><path class="cls-22" d="M1012.02,1672.83c-11.78,2.43-20.99,12.78-32.71,16.24-8.37,2.47-17.32,1.15-25.36-1.86-7.39-2.77-14.91-4.26-22.5-6.69-5.91-1.89-13.9-5.88-20.25-4.56-16.65,3.47-33.26,15.32-48.35,23.01-3.39,1.73-7.11,3.51-10.85,2.8-3.74-.71-6.86-5.25-4.73-8.41-4.34,4.06-10.09,12.17-17.1,9.02-2.86-1.29-4.59-5.08-3.01-7.79-2.41,2.64-4.94,5.37-8.26,6.68-3.32,1.31-7.68,.74-9.64-2.25-.92-1.41-1.2-3.14-1.28-4.82-.29-5.78,1.46-11.49,3.87-16.75,11.89-25.95,38.77-45.19,61.65-60.65,4.05-2.73,8.17-5.51,12.84-6.93,4.18-1.28,8.61-1.42,12.98-1.44,28.37-.13,56.75,4.46,83.64,13.51,5.82,1.96,12.22,.29,18.02-.8,4.29-.8,8.78-1.6,12.97-.38,4.69,1.37,8.33,5.09,11.19,9.05,5.26,7.29,9.27,16.95,8.65,26.11-.48,6.96-1,14.46-9.19,15.92-3.32,.59-6.73,.23-10.08,.58-.84,.09-1.66,.22-2.48,.39Z"></path><path class="cls-11" d="M1874.8,1728.93H144.68c-17.62,0-31.91-13.62-31.91-30.42h0c0-16.8,14.29-30.42,31.91-30.42H1874.8c17.62,0,31.91,13.62,31.91,30.42h0c0,16.8-14.29,30.42-31.91,30.42Z"></path><path class="cls-11" d="M524.65,643.53h-64.63c-27.48,0-49.96,22.48-49.96,49.96h0c0,16.99,8.6,32.06,21.66,41.1v35.16l35.96-26.3h56.97c27.48,0,49.96-22.48,49.96-49.96h0c0-27.48-22.48-49.96-49.96-49.96Z"></path><circle class="cls-7" cx="456.13" cy="693.49" r="7.58"></circle><circle class="cls-7" cx="492.33" cy="693.49" r="7.58"></circle><circle class="cls-7" cx="528.53" cy="693.49" r="7.58"></circle><path class="cls-11" d="M1501.61,1081.17c-9.97-17.05-35.12-25.61-59.43,2.8-24.31-28.42-49.47-19.85-59.43-2.8-24.56,42.02,59.43,91.46,59.43,91.46,0,0,83.99-49.44,59.43-91.46Z"></path><rect class="cls-11" x="797.34" y="553.45" width="148.96" height="99.39" rx="12" ry="12"></rect><path class="cls-2" d="M799.75,556.64l65.22,63.24c3.74,3.62,9.98,3.62,13.71,0l65.22-63.24"></path><line class="cls-5" x1="799.75" y1="649.64" x2="853.26" y2="608.53"></line><line class="cls-5" x1="943.9" y1="649.64" x2="890.39" y2="608.53"></line><rect class="cls-11" x="520.88" y="921.17" width="172.08" height="119.52" rx="12" ry="12"></rect><polygon class="cls-11" points="606.91 1078.46 637.08 1037.77 576.74 1037.77 606.91 1078.46"></polygon><path class="cls-7" d="M652.18,996.3h-7.44v-20.38l.07-3.35,.12-3.66c-1.24,1.24-2.1,2.05-2.58,2.43l-4.05,3.25-3.59-4.48,11.35-9.03h6.12v35.22Z"></path><path class="cls-7" d="M597,959.9h-24.42c-10.38,0-18.88,8.5-18.88,18.88h0c0,6.42,3.25,12.12,8.18,15.53v13.29l13.59-9.94h21.53c10.38,0,18.88-8.5,18.88-18.88h0c0-10.38-8.49-18.88-18.88-18.88Z"></path><path class="cls-23" d="M163.84,329.94c-.95-5.74,6.65-17.32,14.94-17.13,3.3,.07,6.52,.93,9.81,.77,8.77-.43,13.32-7.26,16.7-12.91,3.38-5.65,10.11-12.1,18.66-10.67,12.31,2.07,18.51,18.31,32.5,6.11,9.16-7.98,9.85-19.14,20.22-26.88,7.12-5.31,18.69-8.46,28.24-5.52,12.46,3.83,17.09,16.18,30.35,18.33,14.69,2.38,25.25-8.8,29.94-16.85,5.69-9.78,7.8-20.35,12.68-30.3,4.51-9.21,13.58-21.55,29.84-21.28,13.74,.23,19.8,8.93,26.55,15.83,8.77,8.98,27.01,41.24,47.46,37.35,7.97-1.52,11.96-7.85,19.15-10.69,11.57-4.56,26.31,1.71,33.28,9.59,6.97,7.88,9.73,17.4,17.61,24.85,2.04,1.93,4.51,3.75,7.71,4.63,11,3.01,21.24-6.25,33.02-6.94,8.13-.48,15.67,3.34,20.34,8,4.67,4.66,7.22,10.16,10.79,15.27,1,1.42,2.13,2.86,3.92,3.83,5.17,2.77,12.44,.43,18.76-.65,15.64-2.69,33.4,4.49,37.81,15.28H163.84Z"></path><path class="cls-23" d="M1813.08,274.42c.84-5.06-5.86-15.26-13.17-15.1-2.91,.06-5.75,.82-8.65,.68-7.73-.38-11.74-6.4-14.72-11.38-2.98-4.98-8.91-10.67-16.45-9.4-10.85,1.82-16.32,16.14-28.65,5.39-8.07-7.04-8.68-16.87-17.82-23.7-6.27-4.68-16.48-7.46-24.89-4.87-10.98,3.38-15.06,14.26-26.75,16.16-12.95,2.1-22.26-7.75-26.39-14.86-5.02-8.62-6.88-17.94-11.17-26.71-3.98-8.12-11.97-19-26.3-18.76-12.12,.2-17.45,7.87-23.4,13.96-7.73,7.92-23.81,36.35-41.83,32.92-7.03-1.34-10.54-6.92-16.88-9.42-10.2-4.02-23.19,1.51-29.33,8.45-6.14,6.95-8.58,15.33-15.52,21.91-1.8,1.7-3.98,3.31-6.8,4.08-9.7,2.65-18.72-5.51-29.1-6.11-7.16-.42-13.81,2.95-17.93,7.05-4.12,4.11-6.36,8.96-9.51,13.46-.88,1.25-1.87,2.52-3.46,3.37-4.55,2.44-10.96,.38-16.54-.58-13.78-2.37-29.44,3.95-33.33,13.47h458.6Z"></path></g></g></svg>